<?xml version="1.0" encoding="utf-8"?>
<!-- Generator: Adobe Illustrator 26.0.2, SVG Export Plug-In . SVG Version: 6.00 Build 0)  -->
<svg version="1.1" id="Layer_1" xmlns="http://www.w3.org/2000/svg" xmlns:xlink="http://www.w3.org/1999/xlink" x="0px" y="0px"
	 viewBox="0 0 160.4 75" style="enable-background:new 0 0 160.4 75;" xml:space="preserve">
<style type="text/css">
	.st0{fill:#FFFFFF;}
</style>
<g>
	<path class="st0" d="M12.9,39.5c-0.6,0-1,0-1.3,0c-0.4,0-0.5,0.1-0.5,0.5v15.8c0,0.5,0.2,0.7,0.7,0.7H13c5.3,0,7.2-2,7.2-7.7h0
		v-1.7C20.2,41.2,18.6,39.5,12.9,39.5z"/>
	<path class="st0" d="M66.7,21.3L37.5,0.9c-1.7-1.2-4.5-1.2-6.2,0L2.3,21.3C1,22.2,0,24.2,0,25.7v43.9C0,72.6,2.4,75,5.4,75h58.2
		c3,0,5.4-2.4,5.4-5.4V25.7C68.9,24.2,67.9,22.2,66.7,21.3z M25.6,49.2c0,4.2-1.1,7.2-3.5,9.1c-2.4,1.9-5.1,2.6-10.3,2.6
		c-0.4,0-0.8,0-1.2,0c-0.4,0-0.8,0-1.2,0c-0.9,0-1.6,0-2.1,0c-1.2-0.1-1.5-0.5-1.5-1.8V37.3c0-1.2,0.4-1.7,1.5-1.8
		c1.6-0.2,3.3-0.2,5.4-0.2c4.6,0,7.4,0.8,9.6,2.6c2.2,2,3.2,4.8,3.2,9.2V49.2z M44.8,43.7c0,2.9-0.9,5-2.6,6.3c-1.7,1.4-4.1,2-7.5,2
		h-2.1v7.6c0,0.9-0.3,1.2-1.2,1.2h-2.8c-1,0-1.2-0.2-1.2-1.2V37.1c0-1.2,0.4-1.7,1.5-1.8c1.6-0.2,3.8-0.2,5.9-0.2
		c3.7,0,6,0.6,7.6,1.8c1.6,1.3,2.4,3.2,2.4,6.1V43.7z M63.7,53.5c0,2.5-0.8,4.6-2.1,5.8c-1.4,1.3-3.7,1.9-7.2,1.9
		c-2.1,0-5-0.6-6.7-1.1c-0.7-0.2-1.1-0.5-0.9-1.5l0.4-2.2c0.1-0.7,0.7-1,1.3-0.8c1.6,0.6,4.1,1.2,5.8,1.2c1.9,0,3-0.2,3.6-0.8
		c0.5-0.4,0.7-1,0.7-2.3v-0.3c0-0.9-0.1-1.6-0.4-1.9c-0.4-0.5-1.3-0.8-2.5-1.1l-2.7-0.6c-2.6-0.6-3.8-1.1-4.8-2.3
		c-1-1.1-1.5-2.8-1.5-4.8v-0.5c0-2.5,0.8-4.3,2.3-5.5c1.4-1,3.5-1.5,6.5-1.5c2.4,0,4.9,0.5,6.3,0.9c0.8,0.2,1,0.6,0.8,1.3l-0.6,2.4
		c-0.1,0.6-0.5,0.7-0.8,0.7c-0.2,0-0.4,0-0.6-0.1c-1.8-0.6-3.5-0.9-4.9-0.9c-1.5,0-2.4,0.2-3,0.5c-0.5,0.4-0.8,1.1-0.8,2.2v0.3
		c0,0.9,0.1,1.4,0.6,1.8c0.4,0.4,1.2,0.7,2.5,1l2.8,0.6c2.5,0.5,3.9,1.2,4.9,2.4c0.8,1.1,1.2,2.5,1.2,4.5V53.5z"/>
	<path class="st0" d="M38.5,40.2c-0.8-0.6-1.7-0.8-3.6-0.8c-0.7,0-1.5,0-2.1,0.1c-0.1,0-0.3,0-0.3,0.4v7.8h2.2
		c3.4,0,4.6-1.1,4.6-4.1V43C39.5,41.6,39.2,40.8,38.5,40.2z"/>
</g>
<g>
	<path class="st0" d="M80.6,23c-1.1,0-2,0-2.8,0.1c-0.5,0.1-0.7,0.2-0.7,0.8v11.1c0,0.6,0.2,0.8,0.7,0.8c0.6,0,1.5,0,2.3,0
		c2.6,0,4-0.3,5.2-1.3c1.2-0.9,1.7-2.5,1.7-4.6v-1.1c0-2.2-0.5-3.6-1.6-4.6C84.4,23.4,82.9,23,80.6,23 M84.5,29.9c0,2.9-1,4-3.8,4
		h-0.6c-0.3,0-0.5-0.1-0.5-0.5v-8.1c0-0.2,0.1-0.3,0.3-0.4c0.2,0,0.4,0,0.7,0c3,0,3.8,1,3.8,4L84.5,29.9L84.5,29.9z"/>
	<path class="st0" d="M92.9,26c-3.1,0-4.1,1.6-4.1,4.8v0.5c0,1.8,0.3,3,1,3.8c0.7,0.7,1.7,1,3.3,1c1,0,2-0.2,2.9-0.5
		c0.4-0.1,0.4-0.3,0.4-0.6l-0.3-1c-0.1-0.4-0.3-0.4-0.6-0.3c-0.6,0.2-1.5,0.4-2.1,0.4c-0.9,0-1.5-0.2-1.8-0.4
		c-0.3-0.3-0.5-0.8-0.5-1.6h5c0.4,0,0.5-0.2,0.5-0.6v-1.4c0-1.9-0.4-2.8-1-3.4C95,26.3,94.2,26,92.9,26 M94,30.3h-2.9
		c0-1,0.2-1.6,0.5-2c0.3-0.3,0.6-0.4,1.1-0.4c0.6,0,0.9,0.1,1.2,0.4c0.3,0.3,0.4,0.9,0.4,1.8C94.3,30.2,94.2,30.3,94,30.3"/>
	<path class="st0" d="M103.2,26c-1.3,0-2.2,0.4-2.8,1h0l-0.1-0.5c-0.1-0.3-0.2-0.3-0.5-0.3h-0.7c-0.3,0-0.5,0.1-0.5,0.5v12.3
		c0,0.4,0.1,0.5,0.6,0.5h1.2c0.4,0,0.6-0.1,0.6-0.5v-3.4c0.5,0.3,1.2,0.5,2,0.5c1.5,0,2.4-0.4,3.1-1.1c0.7-0.8,1-2,1-3.7v-0.8
		c0-1.8-0.2-2.8-0.9-3.5C105.5,26.3,104.5,26,103.2,26 M104.7,31.4c0,1.1-0.1,1.8-0.5,2.3c-0.3,0.3-0.7,0.6-1.4,0.6
		c-0.7,0-1.1-0.2-1.4-0.4c-0.2-0.2-0.4-0.6-0.4-1.3v-2.6c0-0.7,0.1-1.2,0.4-1.5c0.3-0.3,0.7-0.4,1.4-0.4c0.7,0,1.1,0.2,1.4,0.5
		c0.4,0.4,0.5,1.1,0.5,2.3L104.7,31.4L104.7,31.4z"/>
	<path class="st0" d="M112.8,26c-1.5,0-2.5,0.4-3.2,1.2c-0.7,0.8-1,2.1-1,3.6v0.6c0,1.5,0.3,2.7,1,3.6c0.7,0.7,1.7,1.2,3.2,1.2
		c1.5,0,2.5-0.4,3.2-1.2c0.7-0.8,1-2,1-3.6v-0.6c0-1.5-0.3-2.7-1-3.6C115.3,26.4,114.3,26,112.8,26 M114.6,31.3c0,1.2-0.1,2-0.4,2.4
		c-0.3,0.3-0.6,0.5-1.3,0.5c-0.7,0-1.1-0.2-1.3-0.5c-0.3-0.4-0.4-1.2-0.4-2.4v-0.4c0-1.2,0.1-2,0.4-2.4c0.3-0.4,0.6-0.5,1.3-0.5
		s1.1,0.2,1.3,0.5c0.3,0.4,0.4,1.2,0.4,2.4V31.3z"/>
	<path class="st0" d="M123.2,30.1l-1.2-0.3c-0.6-0.1-1-0.3-1-0.9v-0.1c0-0.3,0.1-0.5,0.3-0.6c0.2-0.2,0.6-0.2,1.2-0.2
		c0.6,0,1.5,0.2,1.9,0.3c0.3,0.1,0.4,0,0.5-0.2l0.2-1.1c0.1-0.3,0-0.4-0.3-0.5c-0.6-0.2-1.7-0.4-2.7-0.4c-1.3,0-2.1,0.2-2.7,0.6
		c-0.6,0.4-0.9,1.1-0.9,2.1V29c0,0.8,0.2,1.4,0.6,1.8c0.4,0.4,0.8,0.7,1.8,0.9l1.2,0.3c0.8,0.2,1.2,0.4,1.2,1v0.1
		c0,0.4-0.1,0.6-0.3,0.8c-0.3,0.2-0.6,0.2-1.3,0.2c-0.7,0-1.7-0.2-2.4-0.5c-0.3-0.1-0.5,0-0.6,0.3l-0.2,1c-0.1,0.3,0,0.5,0.3,0.6
		c0.8,0.3,2,0.6,3,0.6c1.3,0,2.3-0.3,2.9-0.9c0.5-0.5,0.8-1.2,0.8-2.1v-0.2c0-0.7-0.1-1.2-0.4-1.6C124.8,30.7,124.1,30.3,123.2,30.1
		"/>
	<path class="st0" d="M129.4,26.2h-1.2c-0.4,0-0.6,0.1-0.6,0.5v8.7c0,0.4,0.1,0.5,0.6,0.5h1.2c0.4,0,0.6-0.1,0.6-0.5v-8.7
		C130,26.3,129.9,26.2,129.4,26.2"/>
	<path class="st0" d="M128.9,22.3h-0.1c-0.8,0-1.4,0.4-1.4,1.4v0.1c0,0.9,0.4,1.4,1.4,1.4h0.1c0.8,0,1.4-0.5,1.4-1.4v-0.1
		C130.2,22.7,129.7,22.3,128.9,22.3"/>
	<path class="st0" d="M137.5,33.9h-1c-0.5,0-0.8-0.1-0.9-0.3c-0.2-0.2-0.2-0.5-0.2-1.2v-4.3h2c0.3,0,0.4-0.2,0.4-0.5v-1
		c0-0.4-0.1-0.5-0.4-0.5h-2v-2c0-0.4-0.1-0.5-0.6-0.5h-1.2c-0.4,0-0.6,0.1-0.6,0.5v2.1l-1.3,0.2c-0.2,0-0.3,0.1-0.3,0.4v0.9
		c0,0.3,0.1,0.4,0.4,0.4h1.2v4.7c0,1.1,0.2,1.9,0.8,2.4c0.5,0.5,1.2,0.6,2.3,0.6h1.4c0.4,0,0.5-0.1,0.5-0.5v-1
		C138,34,137.9,33.9,137.5,33.9"/>
</g>
<g>
	<path class="st0" d="M80.9,43.2c-1.2,0-2.3,0-3,0.1c-0.5,0.1-0.7,0.2-0.7,0.8v11.5c0,0.4,0.1,0.5,0.5,0.5h1.4
		c0.4,0,0.5-0.1,0.5-0.5v-4h1.2c1.7,0,2.9-0.3,3.8-1c0.8-0.7,1.3-1.7,1.3-3.2v-0.3c0-1.4-0.3-2.4-1.2-3.1
		C83.8,43.4,82.6,43.2,80.9,43.2 M83.3,47.4c0,1.6-0.7,2.2-2.5,2.2h-1.2v-4.1c0-0.2,0.1-0.2,0.2-0.3c0.3,0,0.7,0,1.1,0
		c1,0,1.5,0.1,1.9,0.4c0.4,0.3,0.5,0.7,0.5,1.5L83.3,47.4L83.3,47.4z"/>
	<path class="st0" d="M92.7,46.5h-0.3c-1.3,0-2,0.4-2.6,1.3h0l-0.1-0.9c0-0.3-0.2-0.4-0.5-0.4h-0.7c-0.3,0-0.5,0.1-0.5,0.5v8.8
		c0,0.4,0.1,0.5,0.6,0.5h1.2c0.4,0,0.6-0.1,0.6-0.5v-5c0-1,0.2-1.4,0.4-1.7c0.3-0.3,0.7-0.5,1.6-0.5h0.4c0.4,0,0.6-0.1,0.6-0.5v-1
		C93.2,46.6,93.1,46.5,92.7,46.5"/>
	<path class="st0" d="M98.4,46.3c-1.5,0-2.5,0.4-3.2,1.2c-0.7,0.8-1,2.1-1,3.6v0.6c0,1.5,0.3,2.7,1,3.6c0.7,0.7,1.7,1.2,3.2,1.2
		c1.5,0,2.5-0.4,3.2-1.2c0.7-0.8,1-2,1-3.6V51c0-1.5-0.3-2.7-1-3.6C100.9,46.7,99.9,46.3,98.4,46.3 M100.2,51.5c0,1.2-0.1,2-0.4,2.4
		c-0.3,0.3-0.6,0.5-1.3,0.5c-0.7,0-1.1-0.2-1.3-0.5c-0.3-0.4-0.4-1.2-0.4-2.4v-0.4c0-1.2,0.1-2,0.4-2.4c0.3-0.3,0.6-0.5,1.3-0.5
		c0.7,0,1.1,0.2,1.3,0.5c0.3,0.4,0.4,1.2,0.4,2.4V51.5z"/>
	<path class="st0" d="M109.7,54.2h-1c-0.5,0-0.8-0.1-0.9-0.3c-0.2-0.2-0.2-0.5-0.2-1.2v-4.3h2c0.3,0,0.4-0.2,0.4-0.5v-1
		c0-0.4-0.1-0.5-0.4-0.5h-2v-2c0-0.4-0.1-0.5-0.6-0.5h-1.2c-0.4,0-0.6,0.1-0.6,0.5v2.1l-1.3,0.2c-0.2,0-0.3,0.1-0.3,0.4v0.9
		c0,0.3,0.1,0.4,0.4,0.4h1.2v4.7c0,1.1,0.2,1.9,0.8,2.4c0.5,0.5,1.2,0.6,2.3,0.6h1.4c0.4,0,0.5-0.1,0.5-0.5v-1
		C110.1,54.3,110.1,54.2,109.7,54.2"/>
	<path class="st0" d="M115.4,46.3c-3.1,0-4.1,1.7-4.1,4.8v0.5c0,1.8,0.3,3,1,3.8c0.7,0.7,1.7,1,3.3,1c1,0,2-0.2,2.9-0.5
		c0.4-0.1,0.4-0.3,0.4-0.6l-0.2-1c-0.1-0.4-0.3-0.4-0.6-0.3c-0.6,0.2-1.5,0.4-2.1,0.4c-0.9,0-1.5-0.2-1.8-0.4
		c-0.3-0.3-0.5-0.8-0.5-1.6h5c0.4,0,0.5-0.2,0.5-0.6v-1.3c0-1.9-0.4-2.8-1-3.3C117.6,46.6,116.8,46.3,115.4,46.3 M116.6,50.6h-2.9
		c0-1,0.2-1.7,0.5-2c0.3-0.3,0.6-0.4,1.1-0.4c0.6,0,0.9,0.1,1.2,0.4c0.3,0.3,0.4,0.9,0.4,1.8C116.9,50.5,116.8,50.6,116.6,50.6"/>
	<path class="st0" d="M125,46.3c-1.3,0-2.3,0.3-3,0.9c-0.9,0.8-1.2,2-1.2,3.8v0.6c0,1.7,0.2,3,1.1,3.9c0.6,0.6,1.7,0.9,2.9,0.9
		c1.1,0,2.2-0.2,2.9-0.5c0.4-0.2,0.5-0.3,0.4-0.7l-0.3-0.9c-0.1-0.3-0.3-0.3-0.6-0.2c-0.5,0.2-1.3,0.4-2,0.4c-0.8,0-1.2-0.2-1.5-0.6
		c-0.4-0.5-0.4-1.1-0.4-2.4v-0.3c0-1.2,0-1.9,0.5-2.4c0.3-0.3,0.8-0.4,1.3-0.4c0.7,0,1.4,0.2,2.1,0.7c0.3,0.2,0.5,0.1,0.6-0.1l0.5-1
		c0.1-0.3,0.1-0.5-0.2-0.7C127.3,46.7,126.1,46.3,125,46.3"/>
	<path class="st0" d="M135.4,54.2h-1c-0.5,0-0.8-0.1-0.9-0.3c-0.2-0.2-0.2-0.5-0.2-1.2v-4.3h2c0.3,0,0.4-0.2,0.4-0.5v-1
		c0-0.4-0.1-0.5-0.4-0.5h-2v-2c0-0.4-0.1-0.5-0.6-0.5h-1.2c-0.4,0-0.6,0.1-0.6,0.5v2.1l-1.3,0.2c-0.2,0-0.3,0.1-0.3,0.4v0.9
		c0,0.3,0.1,0.4,0.4,0.4h1.2v4.7c0,1.1,0.2,1.9,0.8,2.4c0.5,0.5,1.2,0.6,2.3,0.6h1.4c0.4,0,0.5-0.1,0.5-0.5v-1
		C135.9,54.3,135.9,54.2,135.4,54.2"/>
	<path class="st0" d="M138.8,42.6h-0.1c-0.8,0-1.4,0.4-1.4,1.4v0.1c0,0.9,0.4,1.4,1.4,1.4h0.1c0.8,0,1.4-0.5,1.4-1.4V44
		C140.2,43,139.6,42.6,138.8,42.6"/>
	<path class="st0" d="M139.4,46.5h-1.2c-0.4,0-0.6,0.1-0.6,0.5v8.7c0,0.4,0.1,0.5,0.6,0.5h1.2c0.4,0,0.6-0.1,0.6-0.5V47
		C140,46.6,139.9,46.5,139.4,46.5"/>
	<path class="st0" d="M146.2,46.3c-1.5,0-2.5,0.4-3.1,1.2c-0.7,0.8-1,2.1-1,3.6v0.6c0,1.5,0.3,2.7,1,3.6c0.7,0.7,1.7,1.2,3.1,1.2
		c1.5,0,2.5-0.4,3.1-1.2c0.7-0.8,1-2,1-3.6V51c0-1.5-0.3-2.7-1-3.6C148.7,46.7,147.7,46.3,146.2,46.3 M147.9,51.5
		c0,1.2-0.1,2-0.4,2.4c-0.3,0.3-0.6,0.5-1.3,0.5c-0.7,0-1.1-0.2-1.3-0.5c-0.3-0.4-0.4-1.2-0.4-2.4v-0.4c0-1.2,0.1-2,0.4-2.4
		c0.3-0.3,0.6-0.5,1.3-0.5c0.7,0,1.1,0.2,1.3,0.5c0.3,0.4,0.4,1.2,0.4,2.4V51.5z"/>
	<path class="st0" d="M156.9,46.3c-1.4,0-2.1,0.4-2.7,1h-0.1l-0.1-0.5c-0.1-0.3-0.2-0.4-0.5-0.4h-0.7c-0.3,0-0.5,0.1-0.5,0.5v8.8
		c0,0.4,0.1,0.5,0.6,0.5h1.2c0.4,0,0.6-0.1,0.6-0.5v-5.8c0-0.8,0.2-1.1,0.4-1.4c0.2-0.2,0.7-0.3,1.3-0.3c0.6,0,1,0.1,1.3,0.4
		c0.3,0.3,0.4,0.8,0.4,1.5v5.5c0,0.4,0.1,0.5,0.6,0.5h1.2c0.4,0,0.6-0.1,0.6-0.5v-5.4c0-1-0.1-2-0.5-2.7
		C159.3,46.7,158.3,46.3,156.9,46.3"/>
</g>
<g>
	<path class="st0" d="M82.7,67.3L81.2,67c-0.6-0.1-1.1-0.3-1.3-0.5c-0.2-0.2-0.3-0.5-0.3-1v-0.2c0-0.6,0.2-1,0.4-1.2
		c0.3-0.2,0.7-0.3,1.6-0.3c0.8,0,1.7,0.2,2.6,0.5c0.4,0.1,0.6,0,0.6-0.2l0.3-1.2c0.1-0.3,0-0.5-0.3-0.6c-0.7-0.2-2-0.5-3.2-0.5
		c-1.5,0-2.5,0.2-3.3,0.8c-0.8,0.6-1.2,1.5-1.2,2.7v0.3c0,1.1,0.3,1.9,0.8,2.4c0.5,0.6,1.2,0.8,2.4,1.1l1.4,0.3
		c0.7,0.2,1.1,0.3,1.3,0.6c0.2,0.2,0.2,0.5,0.2,1.1v0.2c0,0.6-0.1,1-0.4,1.3c-0.4,0.3-1,0.4-1.9,0.4c-0.9,0-2.2-0.3-3-0.6
		c-0.3-0.1-0.5,0-0.6,0.3l-0.2,1.2c-0.1,0.4,0,0.5,0.4,0.6c0.9,0.3,2.4,0.6,3.4,0.6c1.7,0,2.9-0.3,3.6-0.9c0.7-0.6,1.1-1.7,1.1-2.9
		v-0.3c0-1-0.2-1.7-0.6-2.3C84.6,67.9,83.9,67.6,82.7,67.3"/>
	<path class="st0" d="M91.3,64.9c-3.1,0-4.1,1.7-4.1,4.8v0.5c0,1.8,0.3,3,1,3.8c0.7,0.7,1.7,1,3.3,1c1,0,2-0.2,2.9-0.5
		c0.4-0.1,0.4-0.3,0.3-0.6L94.5,73c-0.1-0.4-0.3-0.4-0.6-0.3c-0.6,0.2-1.5,0.4-2.1,0.4c-0.9,0-1.5-0.2-1.8-0.4
		c-0.3-0.3-0.5-0.8-0.5-1.6h5c0.4,0,0.5-0.2,0.5-0.6v-1.3c0-1.9-0.3-2.8-1-3.3C93.5,65.2,92.7,64.9,91.3,64.9 M92.5,69.2h-2.9
		c0-0.9,0.2-1.7,0.5-2c0.3-0.3,0.6-0.4,1.1-0.4c0.6,0,0.9,0.1,1.2,0.4c0.3,0.3,0.4,0.9,0.4,1.8C92.8,69.1,92.7,69.2,92.5,69.2"/>
	<path class="st0" d="M101.9,65.1h-0.3c-1.3,0-2,0.4-2.6,1.3h-0.1l-0.1-0.9c0-0.3-0.2-0.4-0.5-0.4h-0.7c-0.3,0-0.5,0.1-0.5,0.4v8.8
		c0,0.4,0.1,0.5,0.6,0.5h1.2c0.4,0,0.6-0.1,0.6-0.5v-5.1c0-1,0.2-1.4,0.5-1.7s0.7-0.5,1.6-0.5h0.4c0.4,0,0.6-0.1,0.6-0.4v-1.1
		C102.4,65.2,102.3,65.1,101.9,65.1"/>
	<path class="st0" d="M111.8,65.1h-1.3c-0.3,0-0.5,0.1-0.6,0.4c-0.6,2.3-1.3,4.8-2,6.8h-0.1c-0.7-2-1.4-4.5-2-6.8
		c-0.1-0.3-0.2-0.4-0.6-0.4h-1.3c-0.4,0-0.5,0.1-0.5,0.4c0.7,2.9,1.9,6.4,2.9,8.7c0.2,0.4,0.4,0.5,0.8,0.5h1.4
		c0.5,0,0.7-0.1,0.8-0.5c0.9-2.4,2.1-5.8,2.8-8.7C112.3,65.2,112.1,65.1,111.8,65.1"/>
	<path class="st0" d="M115.5,65.1h-1.2c-0.4,0-0.6,0.1-0.6,0.5v8.7c0,0.4,0.1,0.5,0.6,0.5h1.2c0.4,0,0.6-0.1,0.6-0.5v-8.7
		C116,65.2,115.9,65.1,115.5,65.1"/>
	<path class="st0" d="M114.9,61.2L114.9,61.2c-0.9,0-1.5,0.4-1.5,1.4v0.1c0,0.9,0.4,1.4,1.4,1.4h0.1c0.8,0,1.4-0.5,1.4-1.4v-0.1
		C116.3,61.6,115.7,61.2,114.9,61.2"/>
	<path class="st0" d="M122.2,64.9c-1.3,0-2.3,0.3-3,0.9c-0.9,0.8-1.2,2-1.2,3.8v0.6c0,1.7,0.2,3.1,1.1,3.9c0.6,0.6,1.7,0.9,2.9,0.9
		c1.1,0,2.2-0.2,2.9-0.5c0.4-0.2,0.5-0.3,0.4-0.7l-0.3-0.9c-0.1-0.3-0.3-0.3-0.6-0.2c-0.5,0.2-1.3,0.4-2,0.4c-0.8,0-1.2-0.2-1.5-0.6
		c-0.4-0.4-0.4-1.1-0.4-2.4v-0.3c0-1.2,0-1.9,0.5-2.4c0.3-0.3,0.8-0.4,1.3-0.4c0.7,0,1.4,0.2,2.1,0.7c0.3,0.2,0.5,0.1,0.6-0.1l0.5-1
		c0.1-0.3,0.1-0.5-0.2-0.7C124.5,65.3,123.4,64.9,122.2,64.9"/>
	<path class="st0" d="M130.9,64.9c-3.1,0-4.1,1.7-4.1,4.8v0.5c0,1.8,0.3,3,1,3.8c0.7,0.7,1.7,1,3.3,1c1,0,2-0.2,2.9-0.5
		c0.4-0.1,0.4-0.3,0.4-0.6l-0.3-0.9c-0.1-0.4-0.3-0.4-0.6-0.3c-0.6,0.2-1.5,0.4-2.1,0.4c-0.9,0-1.5-0.2-1.8-0.4
		c-0.3-0.3-0.5-0.8-0.5-1.6h5c0.4,0,0.5-0.2,0.5-0.6v-1.3c0-1.9-0.4-2.8-1-3.3C133.1,65.2,132.3,64.9,130.9,64.9 M132.1,69.2h-2.9
		c0-0.9,0.2-1.7,0.5-2c0.3-0.3,0.6-0.4,1.1-0.4c0.6,0,0.9,0.1,1.1,0.4c0.3,0.3,0.4,0.9,0.4,1.8C132.4,69.1,132.3,69.2,132.1,69.2"/>
</g>
</svg>
